<svg xmlns="http://www.w3.org/2000/svg" xmlns:xlink="http://www.w3.org/1999/xlink" width="81" height="56"><defs><path id="b" d="M30.516 158.357L18.44 170.433c-4.209 4.209-11.032 4.209-15.241 0-4.209-4.208-4.209-11.032 0-15.24L113.802 44.589c4.209-4.208 11.032-4.208 15.241 0 3.665 3.665 4.138 9.312 1.421 13.489l12.076-12.076a10.73 10.73 0 0 1 4.385-2.662l-13.686 13.687c-4.209 4.208-4.209 11.032 0 15.24a10.765 10.765 0 0 0 9.6 2.974l42.65-42.65c4.21-4.209 11.033-4.209 15.241 0 4.209 4.208 4.209 11.032 0 15.24l-66.72 66.721c2.334-4.112 1.75-9.432-1.757-12.938-4.208-4.208-11.032-4.208-15.24 0l-71.768 71.768c-4.158 2.588-9.696 2.076-13.308-1.536-3.664-3.665-4.138-9.312-1.421-13.489zm101.917-41.686c.515-.54.963-1.12 1.344-1.73l.18-.183L244.56 4.154c4.209-4.208 11.032-4.208 15.24 0 4.21 4.209 4.21 11.032 0 15.24L149.199 129.999c-4.209 4.209-11.032 4.209-15.241 0-3.618-3.617-4.126-9.167-1.524-13.327z"/><filter id="a" width="105.3%" height="108%" x="-2.7%" y="-2.9%" filterUnits="objectBoundingBox"><feOffset dy="2" in="SourceAlpha" result="shadowOffsetOuter1"/><feGaussianBlur in="shadowOffsetOuter1" result="shadowBlurOuter1" stdDeviation="2"/><feColorMatrix in="shadowBlurOuter1" values="0 0 0 0 0 0 0 0 0 0 0 0 0 0 0 0 0 0 0.08 0"/></filter><path id="d" d="M28.184 145.816a6.2 6.2 0 0 1 0 8.767l-11.601 11.601a6.2 6.2 0 0 1-8.767-8.767l11.601-11.601a6.2 6.2 0 0 1 8.767 0z"/><filter id="c" width="158.3%" height="158.3%" x="-29.2%" y="-20.8%" filterUnits="objectBoundingBox"><feOffset dy="2" in="SourceAlpha" result="shadowOffsetOuter1"/><feGaussianBlur in="shadowOffsetOuter1" result="shadowBlurOuter1" stdDeviation="2"/><feColorMatrix in="shadowBlurOuter1" values="0 0 0 0 0.101960784 0 0 0 0 0.482352941 0 0 0 0 0.447058824 0 0 0 0.4 0"/></filter><path id="f" d="M64.243 134.757a6 6 0 1 1-8.486 8.486 6 6 0 0 1 8.486-8.486z"/><filter id="e" width="216.7%" height="216.7%" x="-58.3%" y="-41.7%" filterUnits="objectBoundingBox"><feOffset dy="2" in="SourceAlpha" result="shadowOffsetOuter1"/><feGaussianBlur in="shadowOffsetOuter1" result="shadowBlurOuter1" stdDeviation="2"/><feColorMatrix in="shadowBlurOuter1" values="0 0 0 0 0.101960784 0 0 0 0 0.482352941 0 0 0 0 0.447058824 0 0 0 0.4 0"/></filter></defs><g fill="none" fill-rule="evenodd"><g transform="translate(4 -125)"><use fill="#000" filter="url(#a)" xlink:href="#b"/><use fill="#37C3BE" xlink:href="#b"/></g><g transform="translate(4 -125)"><use fill="#000" filter="url(#c)" xlink:href="#d"/><use fill="#35D0D0" xlink:href="#d"/></g><g transform="translate(4 -125)"><use fill="#000" filter="url(#e)" xlink:href="#f"/><use fill="#35D0D0" xlink:href="#f"/></g></g></svg>