<svg xmlns="http://www.w3.org/2000/svg" xmlns:xlink="http://www.w3.org/1999/xlink" width="109" height="63"><defs><path id="b" d="M74.752 158.901L62.564 171.09c-4.247 4.247-11.132 4.247-15.379 0s-4.247-11.132 0-15.38L158.88 44.016c4.247-4.247 11.132-4.247 15.379 0 3.698 3.699 4.176 9.399 1.432 13.614l12.188-12.187a10.829 10.829 0 0 1 4.324-2.654l-13.796 13.796c-4.247 4.247-4.247 11.133 0 15.38a10.864 10.864 0 0 0 9.76 2.987L231.218 31.9c4.247-4.247 11.133-4.247 15.38 0 4.246 4.246 4.246 11.132 0 15.379l-67.267 67.267c2.285-4.134 1.675-9.441-1.833-12.949-4.247-4.246-11.132-4.246-15.379 0l-72.403 72.404c-4.207 2.684-9.857 2.189-13.532-1.486-3.698-3.698-4.176-9.398-1.432-13.614zm102.73-41.908l.016-.016a10.897 10.897 0 0 0 1.65-2.114L290.826 3.185c4.247-4.247 11.132-4.247 15.38 0 4.246 4.247 4.246 11.132 0 15.38L194.51 130.258c-4.247 4.247-11.133 4.247-15.38 0-3.597-3.598-4.147-9.09-1.649-13.266z"/><filter id="a" width="105.3%" height="108%" x="-2.6%" y="-2.8%" filterUnits="objectBoundingBox"><feOffset dy="2" in="SourceAlpha" result="shadowOffsetOuter1"/><feGaussianBlur in="shadowOffsetOuter1" result="shadowBlurOuter1" stdDeviation="2"/><feColorMatrix in="shadowBlurOuter1" values="0 0 0 0 0 0 0 0 0 0 0 0 0 0 0 0 0 0 0.08 0"/></filter><path id="d" d="M89.692 159.834a6.263 6.263 0 1 1-8.858 8.858 6.263 6.263 0 0 1 8.858-8.858z"/><filter id="c" width="211.8%" height="211.8%" x="-55.9%" y="-39.9%" filterUnits="objectBoundingBox"><feOffset dy="2" in="SourceAlpha" result="shadowOffsetOuter1"/><feGaussianBlur in="shadowOffsetOuter1" result="shadowBlurOuter1" stdDeviation="2"/><feColorMatrix in="shadowBlurOuter1" values="0 0 0 0 0.101960784 0 0 0 0 0.482352941 0 0 0 0 0.447058824 0 0 0 0.4 0"/></filter></defs><g fill="none" fill-rule="evenodd"><path fill="#31C9C9" d="M53.25 28.858c-4.35 2.118-9.744 1.37-13.358-2.243-4.556-4.556-4.556-11.943 0-16.499l26.605-26.604c-2.608 4.467-1.998 10.297 1.832 14.126 4.556 4.556 11.943 4.556 16.499 0l93.222-93.222a11.685 11.685 0 0 1-1.832 2.372l-46.12 46.12c4.485-2.703 10.397-2.12 14.266 1.75 4.076 4.075 4.506 10.415 1.29 14.968L192.12-76.84c4.686-4.686 12.283-4.686 16.969 0 4.686 4.686 4.686 12.283 0 16.969L89.732 59.486c-4.686 4.685-12.283 4.685-16.969 0-4.198-4.199-4.635-10.734-1.31-15.419l-.069.07c2.805-4.617 2.212-10.718-1.778-14.707-4.486-4.487-11.642-4.678-16.356-.572zm86.493-135.125c4.556 4.556 4.556 11.943 0 16.499L19.916 30.058c-4.556 4.556-11.943 4.556-16.499 0-4.556-4.556-4.556-11.942 0-16.498l119.827-119.827c4.556-4.556 11.943-4.556 16.499 0z"/><g transform="translate(0 -153)"><use fill="#000" filter="url(#a)" xlink:href="#b"/><use fill="#2DAAA6" xlink:href="#b"/></g><g transform="translate(0 -153)"><use fill="#000" filter="url(#c)" xlink:href="#d"/><use fill="#35D0D0" xlink:href="#d"/></g></g></svg>