<svg xmlns="http://www.w3.org/2000/svg" xmlns:xlink="http://www.w3.org/1999/xlink" width="98" height="54"><defs><path id="b" d="M52 21h26v26H52V21zm-26 0h26v26H26V21zM0 21h26v26H0V21z"/><filter id="a" width="117.9%" height="153.8%" x="-9%" y="-19.2%" filterUnits="objectBoundingBox"><feOffset dy="2" in="SourceAlpha" result="shadowOffsetOuter1"/><feGaussianBlur in="shadowOffsetOuter1" result="shadowBlurOuter1" stdDeviation="2"/><feColorMatrix in="shadowBlurOuter1" values="0 0 0 0 0 0 0 0 0 0 0 0 0 0 0 0 0 0 0.14 0"/></filter><path id="d" d="M72 47.333h23V71H72V47.333zm21.5-23.666H115v23.666H93.5V23.667zm-21.5 0h21.5v23.666H72V23.667zM93.5 0H115v23.667H93.5V0z"/><filter id="c" width="132.6%" height="119.7%" x="-16.3%" y="-7%" filterUnits="objectBoundingBox"><feOffset dy="2" in="SourceAlpha" result="shadowOffsetOuter1"/><feGaussianBlur in="shadowOffsetOuter1" result="shadowBlurOuter1" stdDeviation="2"/><feColorMatrix in="shadowBlurOuter1" values="0 0 0 0 0 0 0 0 0 0 0 0 0 0 0 0 0 0 0.08 0"/></filter><path id="f" d="M36 59h24v24H36V59zm24-24h24v24H60V35zm-24 0h24v24H36V35zm24-24h24v24H60V11z"/><filter id="e" width="129.2%" height="119.4%" x="-14.6%" y="-6.9%" filterUnits="objectBoundingBox"><feOffset dy="2" in="SourceAlpha" result="shadowOffsetOuter1"/><feGaussianBlur in="shadowOffsetOuter1" result="shadowBlurOuter1" stdDeviation="2"/><feColorMatrix in="shadowBlurOuter1" values="0 0 0 0 0 0 0 0 0 0 0 0 0 0 0 0 0 0 0.08 0"/></filter></defs><g fill="none" fill-rule="evenodd"><g transform="translate(4 -23)"><use fill="#000" filter="url(#a)" xlink:href="#b"/><use fill="#9385F5" xlink:href="#b"/></g><g transform="translate(4 -23)"><use fill="#000" filter="url(#c)" xlink:href="#d"/><use fill="#9385F5" xlink:href="#d"/></g><g transform="matrix(0 -1 -1 0 111 84)"><use fill="#000" filter="url(#e)" xlink:href="#f"/><use fill="#B7AEF8" xlink:href="#f"/></g></g></svg>