<?xml version="1.0" encoding="UTF-8"?>
<svg width="48px" height="48px" viewBox="0 0 48 48" version="1.1" xmlns="http://www.w3.org/2000/svg" xmlns:xlink="http://www.w3.org/1999/xlink">
    <!-- Generator: Sketch 54.1 (76490) - https://sketchapp.com -->
    <title>facebook-logo</title>
    <desc>Created with Sketch.</desc>
    <defs>
        <polygon id="path-1" points="0.0028125 0.001875 48 0.001875 48 47.7084375 0.0028125 47.7084375"></polygon>
    </defs>
    <g id="facebook-logo" stroke="none" stroke-width="1" fill="none" fill-rule="evenodd">
        <g id="Group-3">
            <mask id="mask-2" fill="white">
                <use xlink:href="#path-1"></use>
            </mask>
            <g id="Clip-2"></g>
            <path d="M48,24 C48,10.7451563 37.2548437,0 24,0 C10.7451563,0 0,10.7451563 0,24 C0,35.9790938 8.77645312,45.9079688 20.25,47.7084375 L20.25,30.9375 L14.15625,30.9375 L14.15625,24 L20.25,24 L20.25,18.7125 C20.25,12.6975 23.8330312,9.375 29.3151563,9.375 C31.9409531,9.375 34.6875,9.84375 34.6875,9.84375 L34.6875,15.75 L31.6611562,15.75 C28.6797656,15.75 27.75,17.6000156 27.75,19.4979844 L27.75,24 L34.40625,24 L33.3421875,30.9375 L27.75,30.9375 L27.75,47.7084375 C39.2235469,45.9079688 48,35.9790938 48,24" id="Fill-1" fill="#1877F2" mask="url(#mask-2)"></path>
        </g>
        <path d="M33.3421875,30.9375 L34.40625,24 L27.75,24 L27.75,19.4979844 C27.75,17.6000156 28.6797656,15.75 31.6611562,15.75 L34.6875,15.75 L34.6875,9.84375 C34.6875,9.84375 31.9409531,9.375 29.3151563,9.375 C23.8330312,9.375 20.25,12.6975 20.25,18.7125 L20.25,24 L14.15625,24 L14.15625,30.9375 L20.25,30.9375 L20.25,47.7084375 C21.4718906,47.9001563 22.72425,48 24,48 C25.27575,48 26.5281094,47.9001563 27.75,47.7084375 L27.75,30.9375 L33.3421875,30.9375" id="Fill-4" fill="#FFFFFE"></path>
    </g>
</svg>