<?xml version="1.0" encoding="UTF-8"?>
<svg width="48px" height="48px" viewBox="0 0 48 48" version="1.1" xmlns="http://www.w3.org/2000/svg" xmlns:xlink="http://www.w3.org/1999/xlink">
    <!-- Generator: Sketch 54.1 (76490) - https://sketchapp.com -->
    <title>forums icon-48x48</title>
    <desc>Created with Sketch.</desc>
    <g id="forums-icon" stroke="none" stroke-width="1" fill="none" fill-rule="evenodd">
        <path d="M20.0245399,32.9485531 L10.7337423,32.9485531 L3.3791411,40.3366559 C2.98159509,40.7360129 2.58404908,40.9356913 1.98773006,40.9356913 C1.78895706,40.9356913 1.39141104,40.9356913 1.19263804,40.7360129 C0.397546012,40.5363344 0,39.7376206 0,38.9389068 L0,6.9903537 C0,3.59581994 2.58404908,1 5.96319018,1 L33.791411,1 C37.1705521,1 39.7546012,3.59581994 39.7546012,6.9903537 L39.7546012,18.8971061 L43.803681,18.8971061 C46.1815951,18.8971061 48,20.7237942 48,23.1125402 L48,45.5948553 C48,46.1569132 47.7202454,46.7189711 47.1607362,46.8594855 C47.0208589,47 46.7411043,47 46.601227,47 C46.1815951,47 45.9018405,46.8594855 45.6220859,46.5784566 L40.4466258,41.3794212 L24.2208589,41.3794212 C21.8429448,41.3794212 20.0245399,39.5527331 20.0245399,37.1639871 L20.0245399,32.9485531 Z M35.712,27.1664384 L35.712,7.21210046 C35.712,6.01484018 34.9152,5.21666667 33.72,5.21666667 L5.832,5.21666667 C4.6368,5.21666667 3.84,6.01484018 3.84,7.21210046 L3.84,34.35 L8.4216,29.7605023 C8.82,29.3614155 9.2184,29.1618721 9.816,29.1618721 L33.72,29.1618721 C34.9152,29.1618721 35.712,28.3636986 35.712,27.1664384 Z" id="Shape" fill="#6400E4" fill-rule="nonzero"></path>
    </g>
</svg>