<?xml version="1.0" encoding="UTF-8"?>
<svg width="48px" height="48px" viewBox="0 0 48 48" version="1.1" xmlns="http://www.w3.org/2000/svg" xmlns:xlink="http://www.w3.org/1999/xlink">
    <!-- Generator: Sketch 57.1 (83088) - https://sketch.com -->
    <title>Pro Community Icon</title>
    <desc>Created with Sketch.</desc>
    <g id="Pro-Community-Icon" stroke="none" stroke-width="1" fill="none" fill-rule="evenodd">
        <rect id="Rectangle" opacity="0.749883743" x="0" y="0" width="48" height="48"></rect>
        <g id="CC_Symbol_White_CMYK-(1)" transform="translate(0.000000, 0.780000)">
            <path d="M8.28333014,29.4965742 C7.91517703,28.3806316 7.73282297,26.9716364 7.73282297,25.0775885 C7.73282297,23.1828517 7.91517703,21.7717895 8.28333014,20.6579139 C9.31108134,17.4639617 12.0344498,15.7189665 15.5995407,15.7189665 C18.2473493,15.7189665 20.3441914,16.7963254 21.7423923,18.5045742 C21.8503349,18.6522488 21.887311,18.8745646 21.7051866,19.0226986 L19.3890144,21.0655694 C19.2043636,21.2150813 19.0213206,21.1776459 18.8734163,20.9923062 C17.9894354,19.9902775 17.0707751,19.4319617 15.5995407,19.4319617 C14.0192153,19.4319617 12.8061244,20.2123636 12.2905263,21.7720191 C11.9983923,22.6647273 11.9237512,23.7039617 11.9237512,25.0778182 C11.9237512,26.4519043 11.9983923,27.5281148 12.2905263,28.4199043 C12.8061244,29.9409761 14.0192153,30.7209187 15.5995407,30.7209187 C17.0707751,30.7209187 17.9894354,30.1637512 18.8734163,29.1633301 C19.0213206,28.9754641 19.2043636,28.9754641 19.3890144,29.1245167 L21.7051866,31.1673876 C21.887311,31.3152919 21.8503349,31.5008612 21.7423923,31.6875789 C20.3441914,33.3588517 18.2473493,34.4350622 15.5995407,34.4350622 C12.0344498,34.4343732 9.311311,32.688689 8.28333014,29.4965742" id="Fill-1" fill="#10162F"></path>
            <path d="M34.5639043,39.4243062 L34.5639043,42.8070431 C34.5639043,43.0291292 34.7113493,43.1770335 34.9327464,43.1770335 L47.470622,43.1770335 C47.6947751,43.1770335 47.8424498,43.0288995 47.8424498,42.8070431 L47.8424498,39.4243062 C47.8424498,39.2040574 47.6945455,39.0563828 47.470622,39.0563828 L34.9327464,39.0563828 C34.7113493,39.0563828 34.5639043,39.2040574 34.5639043,39.4243062" id="Fill-2" fill="#10162F"></path>
            <path d="M4.48558852,39.0550048 C4.45917703,39.0545455 4.43345455,39.0527081 4.41002871,39.0488038 C4.40267943,39.0471962 4.39510048,39.0444402 4.3877512,39.0423732 C4.37075598,39.0384689 4.35330144,39.0350239 4.33791388,39.028823 C4.33515789,39.0276746 4.33332057,39.0258373 4.33079426,39.0249187 C4.20080383,38.971866 4.12111005,38.8506029 4.12042105,38.6905263 L4.12042105,4.71571292 C4.12042105,4.55333971 4.20080383,4.43207656 4.33079426,4.37810526 C4.33400957,4.3771866 4.33630622,4.37534928 4.33860287,4.37443062 C4.35399043,4.36845933 4.40267943,4.35605742 4.41025837,4.3542201 C4.43460287,4.35031579 4.46078469,4.34801914 4.48673684,4.34801914 L25.8173397,4.34801914 C25.8442105,4.34801914 25.869244,4.35054545 25.8938182,4.3542201 C25.9016268,4.35605742 25.9085167,4.3588134 25.9154067,4.36088038 C25.9326316,4.36455502 25.3862584,4.36822967 25.4016459,4.37443062 C25.4050909,4.37534928 25.4064689,4.3771866 25.4092249,4.37810526 C25.5399043,4.43184689 25.6195981,4.55333971 25.6195981,4.71571292 L25.6195981,38.6902967 C25.6189091,38.8506029 25.538756,38.971866 25.4094545,39.0249187 C25.4064689,39.0258373 25.4050909,39.0276746 25.4018756,39.028823 C25.3869474,39.0345646 25.9326316,39.0384689 25.915866,39.0423732 C25.9085167,39.0444402 25.9020861,39.0471962 25.8938182,39.0488038 C25.8697033,39.0529378 25.8455885,39.0545455 25.8187177,39.0550048 L4.48558852,39.0550048 Z M29.6534354,0.347023923 C29.6476938,0.341511962 29.6444785,0.334392344 29.6389665,0.329110048 C29.6380478,0.328650718 29.6375885,0.328191388 29.6371292,0.328191388 C29.5732823,0.264574163 29.4818756,0.227598086 29.3727847,0.227598086 L0.369301435,0.227598086 C0.341511962,0.227598086 0.315100478,0.230354067 0.28937799,0.234947368 C0.281799043,0.236095694 0.275598086,0.238851675 0.267789474,0.24045933 C0.251023923,0.244593301 0.233569378,0.248267943 0.218181818,0.2544689 C0.215196172,0.25538756 0.212899522,0.256995215 0.210832536,0.258143541 C0.08015311,0.311885167 0,0.434066986 0,0.595980861 L0,42.8056651 C0,42.9345072 0.0500669856,43.0355598 0.135043062,43.1003254 C0.141244019,43.106067 0.146985646,43.1122679 0.155483254,43.1168612 L0.155483254,43.1170909 C0.213818182,43.154756 0.285933014,43.1751962 0.369301435,43.1751962 L29.372555,43.1751962 C29.4968038,43.1751962 29.5976268,43.1267368 29.6614737,43.0454354 C29.7117703,42.9829665 29.7409378,42.9025837 29.7409378,42.8056651 L29.7409378,0.595980861 C29.7409378,0.495157895 29.7083254,0.410411483 29.6534354,0.347023923 L29.6534354,0.347023923 Z" id="Fill-3" fill="#141E3B"></path>
        </g>
    </g>
</svg>