<svg width="81" height="25" xmlns="http://www.w3.org/2000/svg"><g fill="none" fill-rule="evenodd"><path fill="#6400E4" d="M0 0h64v25H0z"/><path d="M13.064 15.312V21H9.752V4.2h5.688c3.96 0 6.048 2.472 6.048 5.52 0 3.024-2.088 5.592-6.048 5.592h-2.376zm1.872-8.232h-1.872v5.376h1.872c1.824 0 3.144-.864 3.144-2.736 0-1.872-1.32-2.64-3.144-2.64zM33.128 21l-3.72-6.456h-2.352V21H23.72V4.2h6.312c3.672 0 5.832 2.184 5.832 5.112 0 1.584-.648 3.6-3.192 4.608L36.968 21h-3.84zm-.6-11.664c0-1.488-1.08-2.256-2.928-2.256h-2.544v4.56H29.6c1.848 0 2.928-.864 2.928-2.304zM46.64 3.912c4.872 0 8.784 3.624 8.784 8.688s-3.912 8.688-8.784 8.688c-4.872 0-8.784-3.624-8.784-8.688s3.912-8.688 8.784-8.688zm0 14.304c3.168 0 5.304-2.4 5.304-5.616 0-3.216-2.136-5.616-5.304-5.616s-5.304 2.4-5.304 5.616c0 3.216 2.136 5.616 5.304 5.616z" fill="#FFF"/><path fill="#6400E4" d="M67 19h14v6H67z"/></g></svg>