<svg width="285" height="60" xmlns="http://www.w3.org/2000/svg"><g fill="#141C3A" fill-rule="nonzero"><path d="M11.81 41.061c-.539-1.544-.78-3.505-.78-6.118 0-2.614.241-4.573.78-6.118 1.44-4.395 5.217-6.831 10.196-6.831 3.719 0 6.599 1.485 8.577 3.86.18.18.18.535-.06.713l-3.239 2.852c-.24.18-.54.18-.719-.12-1.26-1.365-2.52-2.137-4.559-2.137-2.218 0-3.898 1.069-4.618 3.208-.36 1.247-.48 2.672-.48 4.573 0 1.9.12 3.386.54 4.634.72 2.078 2.4 3.207 4.618 3.207 2.04 0 3.36-.772 4.56-2.138.179-.238.478-.238.718-.06l3.24 2.852c.239.178.179.475.06.713-1.98 2.316-4.86 3.8-8.578 3.8-4.977-.059-8.816-2.435-10.255-6.89zm111.31 0c-.539-1.544-.78-3.505-.78-6.118 0-2.614.241-4.573.78-6.118 1.44-4.395 5.218-6.831 10.196-6.831 3.719 0 6.658 1.485 8.577 3.86.18.18.18.535-.06.713l-3.239 2.852c-.24.18-.54.18-.719-.12-1.26-1.365-2.52-2.137-4.559-2.137-2.218 0-3.898 1.069-4.618 3.208-.419 1.247-.54 2.672-.54 4.573 0 1.9.12 3.386.54 4.634.72 2.078 2.4 3.207 4.618 3.207 2.039 0 3.36-.772 4.559-2.138.18-.238.48-.238.719-.06l3.239 2.852c.24.178.18.475.06.713-1.98 2.316-4.858 3.8-8.577 3.8-4.978-.059-8.756-2.435-10.195-6.89zM253.627 47.3c-.3 0-.54-.18-.54-.535V32.507c0-3.207-1.619-5.405-4.677-5.405-2.999 0-4.738 2.198-4.738 5.405v14.257c0 .297-.18.535-.54.535h-4.738c-.3 0-.54-.18-.54-.535V32.507c0-3.207-1.62-5.405-4.679-5.405-2.998 0-4.738 2.198-4.738 5.405v14.257c0 .297-.18.535-.54.535h-4.738c-.298 0-.539-.18-.539-.535V23.063c0-.297.18-.534.54-.534h4.738c.3 0 .54.178.54.534v1.782h.06c1.08-1.544 3.238-2.851 6.538-2.851 2.938 0 5.277 1.188 6.776 3.267h.06c1.919-2.08 4.379-3.267 7.917-3.267 5.758 0 8.997 3.92 8.997 9.207v15.622c0 .298-.18.535-.54.535l-4.619-.06zm11.852 8.732c-.3 0-.54-.18-.54-.535v-4.099c0-.297.18-.534.54-.534h.9c1.98 0 2.938-.892 3.718-2.911l.72-2.08-9.057-23.343c-.12-.298.12-.535.421-.535h5.097c.3 0 .54.179.6.535l5.578 16.157h.12l5.338-16.157c.12-.298.3-.535.598-.535h4.859c.3 0 .54.179.42.535l-9.356 25.838c-2.159 5.88-4.199 7.723-8.336 7.723l-1.62-.06zM49.808 39.516c.42-1.306.54-2.495.54-4.574 0-2.078-.12-3.207-.54-4.573-.72-2.08-2.339-3.208-4.617-3.208-2.28 0-3.958 1.188-4.678 3.208-.421 1.306-.54 2.436-.54 4.573 0 2.079.12 3.268.54 4.574.72 2.08 2.34 3.209 4.678 3.209 2.278.059 3.898-1.13 4.618-3.209zM34.936 41.06c-.54-1.722-.84-3.384-.84-6.118 0-2.732.24-4.336.84-6.117 1.38-4.337 5.157-6.831 10.196-6.831 4.978 0 8.756 2.494 10.135 6.83.54 1.723.84 3.386.84 6.118 0 2.734-.24 4.337-.84 6.118-1.379 4.337-5.157 6.831-10.135 6.831s-8.757-2.494-10.196-6.83zm120.786-19.066c-4.079 0-6.778.95-8.757 2.436-.18.178-.24.415-.12.652l1.92 3.387c.179.236.48.296.718.119 1.2-.95 2.88-1.723 5.638-1.723 4.02 0 5.399 1.187 5.518 3.86v8.257c0 2.851-1.98 4.217-5.518 4.217-2.758 0-4.257-1.01-4.257-3.088 0-2.317 1.619-3.327 5.337-3.327h1.14c.299 0 .54-.178.54-.534v-3.267c0-.297-.18-.535-.54-.535h-2.04c-6.117 0-9.895 2.495-9.895 7.84 0 5.168 3.778 7.546 8.336 7.546 3.479 0 5.817-1.189 6.958-2.852h.06v1.782c0 .297.18.535.54.535h4.317c.3 0 .54-.18.54-.535V30.666c-.12-6.058-2.88-8.672-10.435-8.672zM94.997 32.448c-.12 0-.241.06-.241.238v3.86c0 .12.06.239.24.239h12.716c.359 0 .54-.18.54-.535 0-3.98-.241-5.702-.84-7.425-1.38-4.217-5.1-6.831-10.197-6.831-4.918 0-8.756 2.495-10.135 6.83-.539 1.605-.84 3.564-.84 6.12 0 2.553.36 4.454.9 6.058 1.38 4.336 5.098 6.89 10.315 6.89 4.558 0 8.037-1.723 10.196-4.217.18-.238.18-.535-.06-.713l-2.999-2.673c-.24-.178-.54-.178-.779.12-1.26 1.365-2.998 2.375-5.818 2.375-2.758 0-4.738-1.307-5.517-3.742-.12-.357-.241-.713-.301-1.07a19.812 19.812 0 01-.3-3.563c.061-1.426.121-2.317.3-3.446v-.12c.06-.295.121-.533.181-.77.659-2.021 2.518-3.208 4.857-3.208 2.34 0 4.14 1.187 4.798 3.207.18.594.3 1.247.3 2.078 0 .18-.12.299-.3.299h-7.017v-.001zM81.459 12.05H76.72c-.3 0-.54.179-.54.535V35.93c-.06 1.426-.24 2.376-.48 3.207-.66 2.08-2.279 3.15-4.618 3.15-2.28 0-3.899-1.13-4.558-3.15-.36-1.128-.54-2.376-.54-4.633s.18-3.505.54-4.633c.66-2.02 2.218-3.148 4.439-3.208h2.038c.12 0 .18-.118.18-.237v-4.693c0-.12-.06-.179-.18-.237h-3.539c-4.137.06-7.136 2.018-8.396 5.94-.6 1.9-.9 3.623-.9 6.95 0 3.326.241 5.049.9 6.95 1.26 3.979 4.378 5.94 8.577 5.94 3.358 0 5.397-1.248 6.537-2.912h.06v1.842c0 .297.18.535.54.535h4.738c.3 0 .54-.18.54-.535v-33.86c-.06-.117-.301-.295-.6-.295zm123.845 20.397c-.12 0-.24.06-.24.238v3.86c0 .12.06.239.24.239h12.715c.36 0 .54-.18.54-.535 0-3.98-.241-5.702-.84-7.425-1.38-4.217-5.099-6.831-10.197-6.831-4.918 0-8.755 2.495-10.135 6.83-.54 1.605-.84 3.564-.84 6.12 0 2.553.36 4.454.9 6.058 1.38 4.336 5.098 6.89 10.316 6.89 4.557 0 8.036-1.723 10.195-4.217.18-.238.18-.535-.06-.713l-2.999-2.673c-.24-.178-.539-.178-.779.12-1.26 1.365-2.998 2.375-5.818 2.375-2.758 0-4.738-1.307-5.517-3.742-.12-.357-.24-.713-.301-1.07a19.812 19.812 0 01-.299-3.563c.06-1.426.12-2.317.3-3.446v-.12c.06-.295.12-.533.18-.77.66-2.021 2.518-3.208 4.857-3.208 2.34 0 4.14 1.187 4.798 3.207.18.594.301 1.247.301 2.078 0 .18-.12.299-.3.299h-7.018v-.001zM191.766 12.05h-4.738c-.3 0-.54.179-.54.535v23.403c-.06 1.425-.24 2.377-.479 3.208-.66 2.078-2.28 3.208-4.619 3.208-2.34 0-3.899-1.13-4.558-3.208-.36-1.128-.54-2.376-.54-4.633s.18-3.505.54-4.634c.66-2.02 2.219-3.149 4.439-3.207h2.039c.3 0 .539-.178.539-.535v-4.099c0-.297-.18-.535-.54-.535h-3.478c-4.139.06-7.197 2.02-8.457 5.94-.6 1.901-.9 3.624-.9 7.01 0 3.327.241 5.109.9 7.01 1.26 3.979 4.378 5.94 8.577 5.94 3.359 0 5.397-1.248 6.598-2.91h.06v1.84c0 .297.18.535.538.535h4.738c.301 0 .54-.18.54-.535V12.526c-.12-.297-.36-.475-.659-.475zm-68.422 46.732c0 .748.175.994 1.002.994h16.045c.77 0 1.003-.185 1.003-.994v-3.977c0-.748-.176-.995-1.003-.995h-16.045c-.857 0-1.002.185-1.002.995v3.977z"/><path d="M7.01 53.811h-.993c.12-.06 0-.236 0 0V6.085c0 .236.12.06 0 0h107.299c-.12.06 0 .236 0 0v46.732c0 .699-.12.876 0 .994H7.01zM119.332.12c-.12.179-.12.12 0 0-.12.12-.12.12 0 0-.24.06-.36 0-1.002 0H0c.12.12 0 .298 0 .994v58.664c0-.298.06-.179 0 0h118.33c.641 0 .762-.06 1.002 0-.06-.239 0-.358 0-.994V.119z"/></g></svg>
