<svg id="Layer_1" data-name="Layer 1" xmlns="http://www.w3.org/2000/svg" viewBox="0 0 75.79 13"><defs><style>.cls-1{fill:#1ca0a4;}.cls-2{fill:#00aedf;}.cls-3{fill:#f27221;}</style></defs><title>Untitled-4</title><path class="cls-1" d="M25.38,12.3h0a7.61,7.61,0,0,1,1-.91,3.35,3.35,0,0,1,.82-.43,2.77,2.77,0,0,1,.93-.15,2.64,2.64,0,0,1,1.57.47,3,3,0,0,1,1,1.4A6.47,6.47,0,0,1,31.11,15a5.86,5.86,0,0,1-.42,2.36,3.09,3.09,0,0,1-1.25,1.46,3.76,3.76,0,0,1-2,.49,5.9,5.9,0,0,1-1.2-.12,5.25,5.25,0,0,1-1.18-.41l-.6.52-.59-.14V9.83q0-.82,0-1.15a2.84,2.84,0,0,0-.07-.55,1,1,0,0,0-.15-.36.69.69,0,0,0-.27-.21,2.8,2.8,0,0,0-.61-.15V7l2.08-.09h.51Zm0,3.77a7.22,7.22,0,0,0,.06,1.05,2,2,0,0,0,.2.65,1.58,1.58,0,0,0,.41.47,1.56,1.56,0,0,0,.61.3,3.17,3.17,0,0,0,.75.08A1.73,1.73,0,0,0,29,17.78a4.79,4.79,0,0,0,.53-2.52A5.3,5.3,0,0,0,29,12.7a1.58,1.58,0,0,0-1.46-.85,2.07,2.07,0,0,0-.83.15,2.44,2.44,0,0,0-.68.47,2.36,2.36,0,0,0-.5.63,1.52,1.52,0,0,0-.16.7Z" transform="translate(-2.1 -6.29)"/><path class="cls-1" d="M32.84,18.74a2.83,2.83,0,0,0,.48-.18.72.72,0,0,0,.24-.21,1.1,1.1,0,0,0,.15-.42,5,5,0,0,0,.06-.88V13.3q0-.55,0-.88a1.34,1.34,0,0,0-.12-.54.65.65,0,0,0-.31-.3,2.5,2.5,0,0,0-.6-.17V11l2-.08h.52V17a5.12,5.12,0,0,0,.07,1,.75.75,0,0,0,.26.44,1.77,1.77,0,0,0,.63.26v.42H32.84ZM35.29,7.59V9.25H33.71V7.59Z" transform="translate(-2.1 -6.29)"/><path class="cls-1" d="M40,12.3h0a8.34,8.34,0,0,1,1.06-.95,3.35,3.35,0,0,1,.77-.41,2.41,2.41,0,0,1,.82-.14,2.92,2.92,0,0,1,.84.11,1.88,1.88,0,0,1,.65.34,1.81,1.81,0,0,1,.45.56,2.75,2.75,0,0,1,.26.79A6.53,6.53,0,0,1,45,13.78V17a5.22,5.22,0,0,0,.06,1,.79.79,0,0,0,.23.42,1.79,1.79,0,0,0,.67.29v.42H42.59v-.42a3,3,0,0,0,.48-.18.7.7,0,0,0,.24-.21,1.11,1.11,0,0,0,.15-.42,5,5,0,0,0,.06-.87V14.8a9.93,9.93,0,0,0-.12-1.75,1.56,1.56,0,0,0-.45-.91,1.38,1.38,0,0,0-.95-.3,1.53,1.53,0,0,0-.62.12,2.69,2.69,0,0,0-.64.43,2.43,2.43,0,0,0-.55.64,1.39,1.39,0,0,0-.18.7V17a7.9,7.9,0,0,0,0,.83,1.23,1.23,0,0,0,.12.42.69.69,0,0,0,.26.27,2.09,2.09,0,0,0,.55.2v.42h-3.4v-.42a2.45,2.45,0,0,0,.54-.2.7.7,0,0,0,.25-.24,1.15,1.15,0,0,0,.13-.42,6.24,6.24,0,0,0,0-.87V9.83q0-.82,0-1.15a2.84,2.84,0,0,0-.07-.55,1,1,0,0,0-.15-.36A.69.69,0,0,0,38,7.56a2.8,2.8,0,0,0-.61-.15V7l2.07-.09H40Z" transform="translate(-2.1 -6.29)"/><path class="cls-1" d="M52.38,17.93l-.13,0A5.24,5.24,0,0,1,50.85,19a3.17,3.17,0,0,1-1.39.32A2.5,2.5,0,0,1,48.3,19a1.8,1.8,0,0,1-.76-.71,2.08,2.08,0,0,1-.27-1.06,2.12,2.12,0,0,1,1.24-1.94,8.79,8.79,0,0,1,3.72-.79V14a4.61,4.61,0,0,0-.17-1.41,1.38,1.38,0,0,0-.54-.76,1.79,1.79,0,0,0-1-.24,1.59,1.59,0,0,0-1.08.35A2.15,2.15,0,0,0,48.84,13H47.72V11.87a12.22,12.22,0,0,1,1.37-.63,8,8,0,0,1,1.1-.32,5.41,5.41,0,0,1,1.12-.12,3,3,0,0,1,1.36.27,1.72,1.72,0,0,1,.77.83,4.2,4.2,0,0,1,.26,1.68v3q0,.64,0,.9a3.06,3.06,0,0,0,.05.48,1,1,0,0,0,.13.36.7.7,0,0,0,.25.23,2.56,2.56,0,0,0,.55.2v.42H52.34Zm-.15-2.69a6,6,0,0,0-2.61.46,1.44,1.44,0,0,0-.87,1.35,1.33,1.33,0,0,0,.2.77,1,1,0,0,0,.5.39,2.11,2.11,0,0,0,.71.11A2,2,0,0,0,51.22,18a2.11,2.11,0,0,0,.74-.72,1.66,1.66,0,0,0,.27-.87Z" transform="translate(-2.1 -6.29)"/><path class="cls-1" d="M58.32,12.27l.12,0a10.47,10.47,0,0,1,.85-.78,4,4,0,0,1,.64-.42,2.79,2.79,0,0,1,.58-.23,2.25,2.25,0,0,1,.55-.07,2.32,2.32,0,0,1,1.4.39,2.06,2.06,0,0,1,.75,1.21,11.41,11.41,0,0,1,1-1,3.41,3.41,0,0,1,.82-.48,2.37,2.37,0,0,1,.9-.17,2.65,2.65,0,0,1,1,.17,1.74,1.74,0,0,1,.7.51,2.19,2.19,0,0,1,.42.87,6,6,0,0,1,.13,1.41V17a6.21,6.21,0,0,0,0,.9,1.15,1.15,0,0,0,.12.39.69.69,0,0,0,.24.24,2.29,2.29,0,0,0,.55.2v.42H65.79v-.42a3,3,0,0,0,.48-.18.7.7,0,0,0,.24-.21,1.1,1.1,0,0,0,.15-.42,5,5,0,0,0,.06-.87V14.8q0-.73,0-1.21a4,4,0,0,0-.12-.76,1.33,1.33,0,0,0-.46-.73,1.12,1.12,0,0,0-.34-.19,1.64,1.64,0,0,0-.52-.07,1.5,1.5,0,0,0-.64.14,2.55,2.55,0,0,0-.64.46,2.2,2.2,0,0,0-.5.66,1.82,1.82,0,0,0-.15.78V17a6.21,6.21,0,0,0,0,.9,1.15,1.15,0,0,0,.12.39.69.69,0,0,0,.24.24,2.29,2.29,0,0,0,.55.2v.42H60.89v-.42a3,3,0,0,0,.48-.18.7.7,0,0,0,.24-.21,1.1,1.1,0,0,0,.15-.42,5,5,0,0,0,.06-.87V14.8q0-.76,0-1.24a3.89,3.89,0,0,0-.13-.77,1.46,1.46,0,0,0-.23-.47,1.22,1.22,0,0,0-.29-.27,1.1,1.1,0,0,0-.34-.14,1.92,1.92,0,0,0-.45,0,1.43,1.43,0,0,0-.66.16,2.86,2.86,0,0,0-.63.46,2.23,2.23,0,0,0-.48.63,1.55,1.55,0,0,0-.16.7V17q0,.49,0,.75a1.63,1.63,0,0,0,.08.4.7.7,0,0,0,.14.24.92.92,0,0,0,.24.17,2.56,2.56,0,0,0,.48.17v.42H56v-.42a2.88,2.88,0,0,0,.47-.18.76.76,0,0,0,.24-.21,1,1,0,0,0,.15-.42,5.44,5.44,0,0,0,.05-.88V13.3q0-.55,0-.88a1.34,1.34,0,0,0-.12-.54.65.65,0,0,0-.31-.3,2.5,2.5,0,0,0-.6-.17V11l2-.08h.52Z" transform="translate(-2.1 -6.29)"/><path class="cls-1" d="M75.59,17.93l-.13,0A5.24,5.24,0,0,1,74.06,19a3.17,3.17,0,0,1-1.39.32A2.5,2.5,0,0,1,71.51,19a1.8,1.8,0,0,1-.76-.71,2.08,2.08,0,0,1-.27-1.06,2.12,2.12,0,0,1,1.24-1.94,8.79,8.79,0,0,1,3.72-.79V14a4.61,4.61,0,0,0-.17-1.41,1.38,1.38,0,0,0-.54-.76,1.79,1.79,0,0,0-1-.24,1.59,1.59,0,0,0-1.08.35A2.15,2.15,0,0,0,72.05,13H70.93V11.87a12.22,12.22,0,0,1,1.37-.63,8,8,0,0,1,1.1-.32,5.41,5.41,0,0,1,1.12-.12,3,3,0,0,1,1.36.27,1.72,1.72,0,0,1,.77.83,4.2,4.2,0,0,1,.26,1.68v3q0,.64,0,.9A3.06,3.06,0,0,0,77,18a1,1,0,0,0,.13.36.7.7,0,0,0,.25.23,2.56,2.56,0,0,0,.55.2v.42H75.54Zm-.15-2.69a6,6,0,0,0-2.61.46A1.44,1.44,0,0,0,72,17.05a1.33,1.33,0,0,0,.2.77,1,1,0,0,0,.5.39,2.11,2.11,0,0,0,.71.11A2,2,0,0,0,74.43,18a2.11,2.11,0,0,0,.74-.72,1.66,1.66,0,0,0,.27-.87Z" transform="translate(-2.1 -6.29)"/><path class="cls-2" d="M9.4,6.34,2.1,6.29l0,7a6.48,6.48,0,0,0,12.92,0v-1A6.48,6.48,0,0,0,9.4,6.34ZM8.72,16.68a3.91,3.91,0,0,1-3.91-3.91c0-.08,0-.17,0-.25h0V8.86H8.72a3.91,3.91,0,0,1,0,7.82Z" transform="translate(-2.1 -6.29)"/><path class="cls-3" d="M14.39,6.32a6.48,6.48,0,0,0,0,12.92h1A6.46,6.46,0,0,0,21.3,13.6l.05-7.3Zm4.4,6.59A3.91,3.91,0,1,1,14.88,9h3.91Z" transform="translate(-2.1 -6.29)"/><path class="cls-2" d="M9.41,6.34,2.1,6.29l0,6.79H4.82q0-.15,0-.31c0-.08,0-.17,0-.25h0V8.86H8.72a3.91,3.91,0,0,1,3.91,3.91q0,.16,0,.31H15v-.83A6.48,6.48,0,0,0,9.41,6.34Z" transform="translate(-2.1 -6.29)"/></svg>